<svg xmlns="http://www.w3.org/2000/svg" xml:space="preserve" width="64" height="64"
  viewBox="0 0 512 512"><path d="M434.439 110.654C401.179 45.876 334.359.003 255.98 0v101.329c55.478.004 100.593 43.671 100.595 99.15 0 54.805-45.491 102.048-100.595 102.052V512c70.646-73.617 151.953-154.542 187.529-251.428 17.789-48.451 14.47-104.072-9.07-149.918z" style="fill:#b3b3b3"/><path d="M68.492 260.572C104.067 357.458 185.374 438.383 256.02 512V302.531c-55.103-.004-100.595-47.247-100.595-102.052.002-55.478 45.117-99.146 100.595-99.15V0C177.641.003 110.821 45.876 77.56 110.654 54.021 156.5 50.702 212.121 68.492 260.572z" style="fill:#979797"/><circle cx="256" cy="198.773" r="160" style="fill:#f0f0f0"/><path d="M193.392 143.121h212.656C383.442 82.193 324.794 38.773 256 38.773c-44.183 0-84.179 17.911-113.132 46.868l50.524 57.48z"/><path d="M193.392 254.425h212.656C383.442 315.353 324.794 358.772 256 358.772c-44.183 0-84.179-17.913-113.132-46.868l50.524-57.479z" style="fill:#6da544"/><path d="M142.863 85.635c-62.483 62.483-62.483 163.792 0 226.275L256 198.773 142.863 85.635z" style="fill:#d80027"/><path d="M255.929 21.707c-73.745 0-141.451 47.552-166.61 116.806-25.343 69.773-3.142 149.836 53.974 197.071 57.236 47.338 140.369 53.625 203.978 15.148 63.626-38.49 97.228-114.681 82.271-187.573-14.653-71.388-74.025-128.038-146.07-139.316a178.099 178.099 0 0 0-27.543-2.136M398.59 263.184c-30.241 67.009-105.732 104.802-177.479 88.399-55.215-12.621-100.384-55.764-115.778-110.195-15.749-55.658 1.328-116.804 43.417-156.425 45.534-42.867 114.172-54.571 171.321-28.799 68.228 30.767 105.971 108.144 87.651 180.844-2.263 8.978-5.352 17.731-9.132 26.176-2.088 4.626 1.542-3.445 0 0" style="fill:#c7c7c7"/></svg>