<svg xmlns="http://www.w3.org/2000/svg" xml:space="preserve" width="64" height="64"
  viewBox="0 0 512 512"><path d="M434.439 110.654C401.179 45.876 334.359.003 255.98 0v101.329c55.478.004 100.593 43.671 100.595 99.151 0 54.805-45.491 102.048-100.595 102.051V512c70.646-73.617 151.953-154.542 187.529-251.428 17.789-48.451 14.47-104.072-9.07-149.918z" style="fill:#b3b3b3"/><path d="M68.492 260.572C104.067 357.458 185.374 438.383 256.02 512V302.531c-55.103-.003-100.595-47.246-100.595-102.051.002-55.478 45.117-99.147 100.595-99.151V0C177.641.003 110.821 45.876 77.56 110.654 54.021 156.5 50.702 212.121 68.492 260.572z" style="fill:#979797"/><circle cx="256" cy="198.773" r="160" style="fill:#f0f0f0"/><path d="M414.645 177.903H276.869V40.127a161.462 161.462 0 0 0-41.738 0V177.904H97.355a161.462 161.462 0 0 0 0 41.738h137.776v137.776a161.462 161.462 0 0 0 41.738 0V219.643h137.776a161.462 161.462 0 0 0 0-41.74z" style="fill:#d80027"/><path d="M255.929 21.706c-73.745 0-141.451 47.553-166.61 116.807-25.343 69.773-3.142 149.835 53.974 197.07 57.236 47.338 140.369 53.625 203.978 15.148 63.626-38.489 97.228-114.681 82.271-187.573C414.889 91.77 355.517 35.12 283.472 23.842a178.223 178.223 0 0 0-27.543-2.136M398.59 263.184c-30.241 67.01-105.732 104.802-177.479 88.399-55.215-12.621-100.384-55.764-115.778-110.195-15.749-55.658 1.328-116.804 43.417-156.425 45.534-42.867 114.172-54.571 171.321-28.799 68.228 30.767 105.971 108.144 87.651 180.845-2.263 8.977-5.352 17.73-9.132 26.175-2.088 4.627 1.542-3.445 0 0" style="fill:#c7c7c7"/></svg>